<?xml version="1.0" standalone="no"?>
<!DOCTYPE svg PUBLIC "-//W3C//DTD SVG 20010904//EN"
 "http://www.w3.org/TR/2001/REC-SVG-20010904/DTD/svg10.dtd">
<svg version="1.0" xmlns="http://www.w3.org/2000/svg"
 width="563.000000pt" height="375.000000pt" viewBox="0 0 563.000000 375.000000"
 preserveAspectRatio="xMidYMid meet">

<g transform="translate(0.000000,375.000000) scale(0.100000,-0.100000)"
fill="#000000" stroke="none">
<path d="M2863 3488 c3 -12 1 -18 -6 -15 -14 4 -32 -13 -72 -68 -16 -22 -41
-52 -56 -67 -15 -14 -25 -29 -21 -32 3 -3 0 -6 -6 -6 -6 0 -14 -9 -17 -20 -3
-11 -11 -20 -16 -20 -6 0 -7 5 -4 10 3 6 -1 10 -9 10 -10 0 -16 -9 -16 -22 -1
-22 -21 -58 -33 -58 -4 0 -12 12 -20 26 l-14 26 -17 -26 c-9 -15 -14 -32 -10
-38 4 -7 3 -8 -4 -4 -15 9 -16 -42 -2 -79 25 -65 210 -225 394 -339 42 -27 76
-51 75 -55 0 -3 -4 -15 -8 -26 -10 -23 4 -55 23 -55 7 0 21 9 31 20 12 13 25
18 34 14 9 -4 68 -13 131 -19 138 -16 194 -35 210 -75 6 -15 10 -39 8 -51 -3
-22 6 -27 124 -67 125 -42 232 -61 282 -48 14 3 38 25 56 50 35 52 38 66 10
61 -12 -2 -30 -1 -41 4 -21 7 -21 7 3 37 13 16 25 43 26 59 1 17 18 79 38 139
30 88 34 110 23 117 -10 6 -11 9 -1 9 8 0 11 12 8 38 -4 31 -17 49 -81 110
-131 123 -361 263 -491 296 -82 21 -83 21 -38 -15 22 -17 41 -33 44 -35 2 -3
-56 24 -130 60 -171 83 -277 118 -341 115 -49 -3 -69 12 -29 21 31 7 26 24
-10 31 -28 6 -31 4 -27 -13z m102 -139 c26 -20 32 -29 18 -25 -18 6 -35 -7
-99 -73 -43 -45 -79 -79 -81 -77 -3 2 19 39 47 82 28 44 53 89 56 102 8 28 11
28 59 -9z m445 -132 c14 -10 15 -17 5 -46 l-11 -34 -102 92 c-56 51 -102 95
-102 97 0 4 187 -92 210 -109z m-320 80 c35 -12 68 -36 98 -69 9 -9 20 -14 26
-11 6 3 8 2 3 -2 -4 -5 5 -17 20 -27 16 -10 23 -18 17 -18 -10 0 -128 78 -182
121 -29 22 -28 23 18 6z m-313 -186 c-2 -27 -3 -28 -19 -14 -22 20 -24 40 -2
23 8 -8 14 -9 13 -4 -2 13 0 24 6 24 2 0 3 -13 2 -29z m998 -51 c3 -6 -1 -7
-9 -4 -18 7 -21 14 -7 14 6 0 13 -4 16 -10z m-160 -75 c41 2 73 0 71 -4 -2 -3
10 -6 27 -6 20 0 31 -5 30 -12 -5 -21 15 -15 32 10 14 19 17 20 25 6 5 -8 27
-24 49 -34 22 -10 43 -26 46 -36 4 -11 10 -19 15 -19 5 0 7 -6 4 -14 -11 -30
-76 -29 -170 3 -128 42 -212 79 -253 109 -58 42 -59 45 -4 19 43 -20 66 -24
128 -22z m-542 -268 c3 -8 0 -14 -7 -14 -7 0 -13 6 -13 14 0 7 4 13 8 13 4 0
9 -6 12 -13z"/>
<path d="M1700 2691 c0 -5 6 -13 13 -19 15 -13 42 1 33 17 -8 13 -46 15 -46 2z"/>
<path d="M1730 2526 c0 -2 9 -6 20 -9 11 -3 18 -1 14 4 -5 9 -34 13 -34 5z"/>
<path d="M2888 2516 c-10 -7 -24 -28 -32 -46 -9 -23 -21 -34 -37 -36 -13 -1
-77 -5 -142 -9 -64 -4 -120 -12 -123 -17 -4 -7 -9 -7 -13 0 -4 7 -22 7 -51 2
-25 -5 -65 -10 -90 -11 -38 -2 -40 -3 -12 -6 52 -7 37 -19 -37 -32 -90 -14
-101 -14 -71 5 l25 15 -28 -4 c-26 -4 -28 -2 -23 19 4 16 2 24 -6 24 -9 0 -8
3 2 10 11 7 12 12 3 21 -19 19 -43 3 -43 -30 0 -48 -9 -62 -32 -50 -16 8 -24
7 -41 -8 -35 -31 -93 -16 -182 45 l-77 53 44 -51 c24 -28 57 -58 75 -66 17 -9
39 -27 48 -41 16 -24 16 -24 -4 -14 -27 15 -28 14 -26 -11 2 -26 10 -28 161
-35 286 -13 741 69 1037 186 15 6 27 14 27 17 0 4 -72 4 -159 1 l-160 -7 2 42
c2 44 -8 55 -35 34z m-398 -136 c0 -17 -49 -62 -60 -55 -15 9 0 35 21 35 11 0
22 7 25 15 7 17 14 20 14 5z m310 -4 c0 -2 -8 -10 -17 -17 -16 -13 -17 -12 -4
4 13 16 21 21 21 13z m-620 -37 c0 -5 -4 -9 -8 -9 -5 0 -9 7 -9 15 0 8 4 12 9
9 4 -3 8 -9 8 -15z m33 -19 c3 -11 1 -18 -4 -14 -5 3 -9 12 -9 20 0 20 7 17
13 -6z m530 5 c-3 -9 -8 -14 -10 -11 -3 3 -2 9 2 15 9 16 15 13 8 -4z m-233
-35 c0 -5 -4 -10 -10 -10 -5 0 -10 5 -10 10 0 6 5 10 10 10 6 0 10 -4 10 -10z"/>
<path d="M2085 2370 c-17 -6 -16 -7 8 -12 16 -3 31 0 38 8 8 10 8 14 0 14 -6
0 -11 -6 -11 -12 0 -9 -2 -10 -8 -2 -4 6 -16 8 -27 4z"/>
<path d="M1960 2311 c0 -10 6 -24 13 -30 11 -8 16 -5 25 13 12 27 7 36 -20 36
-11 0 -18 -7 -18 -19z"/>
<path d="M3398 1869 c-27 -20 -219 -98 -340 -138 -49 -16 -65 -26 -61 -37 3
-9 -1 -14 -12 -14 -9 0 -13 5 -10 10 3 6 2 10 -4 10 -17 0 -22 -18 -8 -27 8
-4 17 -30 21 -57 3 -27 17 -69 31 -94 18 -32 25 -60 25 -101 1 -31 5 -76 11
-101 12 -57 38 -249 48 -360 6 -60 5 -88 -3 -93 -6 -5 -2 -7 12 -4 12 3 22 4
22 2 0 -4 -48 -27 -80 -39 -8 -3 8 -3 35 0 84 10 198 40 235 62 19 12 49 28
65 37 17 8 47 29 68 46 36 30 37 32 37 102 0 40 -4 124 -10 187 -5 63 -14 203
-19 310 -14 241 -21 320 -29 320 -4 0 -19 -10 -34 -21z"/>
</g>
</svg>
